<?xml version="1.0" encoding="UTF-8"?>
<!DOCTYPE svg PUBLIC "-//W3C//DTD SVG 1.1//EN" "http://www.w3.org/Graphics/SVG/1.1/DTD/svg11.dtd">
<!-- Creator: CorelDRAW -->
<svg xmlns="http://www.w3.org/2000/svg" xml:space="preserve" width="2279px" height="1438px" version="1.1" style="shape-rendering:geometricPrecision; text-rendering:geometricPrecision; image-rendering:optimizeQuality; fill-rule:evenodd; clip-rule:evenodd"
viewBox="0 0 631.66 398.6"
 xmlns:xlink="http://www.w3.org/1999/xlink"
 xmlns:xodm="http://www.corel.com/coreldraw/odm/2003">
 <defs>
  <style type="text/css">
   <![CDATA[
    .fil0 {fill:#5F5E5E}
   ]]>
  </style>
 </defs>
 <g id="Layer_x0020_1">
  <metadata id="CorelCorpID_0Corel-Layer"/>
  <g id="_105553344202432">
   <g>
    <g>
     <path class="fil0" d="M631.66 293.49l0 46.44 -150.63 0 0 -32.01c0,0 51.85,-11.3 51.85,-38.77 0,-27.47 -82.41,-15.37 -68.52,-68.07 9.11,-34.59 51.57,-27.16 36.51,-61.31 -15.06,-34.15 -38.73,-101.88 84.3,-101.88 0,0 30.21,-3.81 30.21,30.2 0,24.84 -10.87,47.31 -36.97,36.97 -26.1,-10.35 -60.16,9.69 -38.32,30.2 25.55,23.99 41.42,37.56 -9.02,75.28 -23.25,17.4 45.07,20.18 52.75,39.68 7.68,19.49 -49.71,42.82 -20.29,42.82 29.43,0 68.13,0.45 68.13,0.45z"/>
    </g>
    <g>
     <path class="fil0" d="M201.49 178.13c0,0 -49.21,54.38 -65.69,16.65 -8.97,-20.54 -4.78,-40.19 -21.14,-38.7 -25.99,2.37 -13.28,27.48 -45,33.75 -31.71,6.27 -38,25.68 25.2,49.49 69.5,26.2 60.41,-22.46 112.03,-6.3 51.63,16.17 65.1,165.58 -76.04,165.58 -84.01,0 -98.98,-53.54 -98.98,-53.54 0,0 2.48,-40.94 43.64,-40.94 26.09,0 7.93,37.36 41.39,45.44 30.13,7.27 10.24,-32.58 50.85,-32.4 31.74,0.15 12.36,-74.03 -18.45,-44.54 -49.4,47.29 -48.91,-6.96 -87.29,-1.35 -47.85,7 -79.7,-58.12 -51.29,-79.19 34.77,-25.79 51.65,-33.69 62.09,-66.14 10.44,-32.45 76.61,-40.54 105.74,-2.25 29.12,38.29 22.94,54.44 22.94,54.44z"/>
    </g>
    <path class="fil0" d="M284.5 128.26c0,0 -88.47,43.81 -60.31,69.76 0,0 -7.93,20.18 4.95,30.16 12.88,9.98 31.09,19.6 36.01,46.35 4.91,26.75 101,36.48 135.01,-22.5l20.25 20.25 63.91 0 -52.65 -52.65c0,0 -6.5,-14.68 10.8,-28.36 17.3,-13.67 23.81,-57.91 13.05,-71.11 -10.76,-13.19 -38.78,-4.31 -50.41,0.45 -40.03,16.42 37.39,53.56 -2.25,66.16 -13.03,4.14 -25.98,-16.7 -30.6,-33.75 -4.62,-17.06 -25.2,-19.35 -25.2,-19.35 0,0 31.7,-17.4 44.1,-34.66 12.41,-17.25 -11.56,-21.02 1.8,-54.01 13.37,-32.98 0,-45 0,-45l-135.46 0c0,0 -34.2,64.74 -1.36,81.91 32.85,17.17 28.36,46.35 28.36,46.35zm21.6 24.31c0,0 -64.09,15.94 -29.25,35.55 11.05,6.22 34.2,8.49 27.45,42.76 -11.91,60.42 24.32,4.2 49.96,-1.35 42.08,-9.11 -11.27,-17.03 -7.2,-39.16 11.27,-61.32 -40.96,-37.8 -40.96,-37.8zm14.4 -44.56c0,0 12.26,-34.32 -18,-33.3 -30.26,1.02 -9.41,-27 9.9,-27 19.31,0 68.91,24.85 8.1,60.3z"/>
   </g>
  </g>
 </g>
</svg>
